<mxfile host="app.diagrams.net" agent="Mozilla/5.0 (Windows NT 10.0; Win64; x64) AppleWebKit/537.36 (KHTML, like Gecko) Chrome/133.0.0.0 Safari/537.36" version="26.1.0">
  <diagram name="PÃ¡gina-1" id="KqKfkKisgSQQQRgg18U9">
    <mxGraphModel dx="1050" dy="557" grid="1" gridSize="10" guides="1" tooltips="1" connect="1" arrows="1" fold="1" page="1" pageScale="1" pageWidth="827" pageHeight="1169" math="0" shadow="0">
      <root>
        <mxCell id="0" />
        <mxCell id="1" parent="0" />
        <mxCell id="8-e8AVgfwQzteIb5YWxK-8" value="" style="edgeStyle=orthogonalEdgeStyle;rounded=0;orthogonalLoop=1;jettySize=auto;html=1;" edge="1" parent="1" source="8-e8AVgfwQzteIb5YWxK-1" target="8-e8AVgfwQzteIb5YWxK-3">
          <mxGeometry relative="1" as="geometry" />
        </mxCell>
        <mxCell id="8-e8AVgfwQzteIb5YWxK-1" value="Inicio" style="strokeWidth=2;html=1;shape=mxgraph.flowchart.start_1;whiteSpace=wrap;fillColor=#d5e8d4;strokeColor=#82b366;" vertex="1" parent="1">
          <mxGeometry x="364" y="10" width="100" height="60" as="geometry" />
        </mxCell>
        <mxCell id="8-e8AVgfwQzteIb5YWxK-2" value="Fim" style="strokeWidth=2;html=1;shape=mxgraph.flowchart.start_1;whiteSpace=wrap;fillColor=#d5e8d4;strokeColor=#82b366;" vertex="1" parent="1">
          <mxGeometry x="364" y="570" width="100" height="60" as="geometry" />
        </mxCell>
        <mxCell id="8-e8AVgfwQzteIb5YWxK-9" value="" style="edgeStyle=orthogonalEdgeStyle;rounded=0;orthogonalLoop=1;jettySize=auto;html=1;" edge="1" parent="1" source="8-e8AVgfwQzteIb5YWxK-3" target="8-e8AVgfwQzteIb5YWxK-4">
          <mxGeometry relative="1" as="geometry" />
        </mxCell>
        <mxCell id="8-e8AVgfwQzteIb5YWxK-3" value="WS-BASE&lt;div&gt;WS-ALTURA&lt;/div&gt;&lt;div&gt;WS-AREA&lt;/div&gt;" style="rounded=1;whiteSpace=wrap;html=1;absoluteArcSize=1;arcSize=14;strokeWidth=2;fillColor=#f5f5f5;fontColor=#333333;strokeColor=#666666;" vertex="1" parent="1">
          <mxGeometry x="319" y="100" width="190" height="60" as="geometry" />
        </mxCell>
        <mxCell id="8-e8AVgfwQzteIb5YWxK-10" value="" style="edgeStyle=orthogonalEdgeStyle;rounded=0;orthogonalLoop=1;jettySize=auto;html=1;" edge="1" parent="1" source="8-e8AVgfwQzteIb5YWxK-4" target="8-e8AVgfwQzteIb5YWxK-5">
          <mxGeometry relative="1" as="geometry" />
        </mxCell>
        <mxCell id="8-e8AVgfwQzteIb5YWxK-4" value="&lt;div&gt;&lt;br&gt;&lt;/div&gt;WS-BASE" style="html=1;strokeWidth=2;shape=manualInput;whiteSpace=wrap;rounded=1;size=26;arcSize=11;fillColor=#dae8fc;strokeColor=#6c8ebf;" vertex="1" parent="1">
          <mxGeometry x="364" y="190" width="100" height="60" as="geometry" />
        </mxCell>
        <mxCell id="8-e8AVgfwQzteIb5YWxK-11" value="" style="edgeStyle=orthogonalEdgeStyle;rounded=0;orthogonalLoop=1;jettySize=auto;html=1;" edge="1" parent="1" source="8-e8AVgfwQzteIb5YWxK-5" target="8-e8AVgfwQzteIb5YWxK-6">
          <mxGeometry relative="1" as="geometry" />
        </mxCell>
        <mxCell id="8-e8AVgfwQzteIb5YWxK-5" value="&lt;div&gt;&lt;br&gt;&lt;/div&gt;WS-ALTURA" style="html=1;strokeWidth=2;shape=manualInput;whiteSpace=wrap;rounded=1;size=26;arcSize=11;fillColor=#dae8fc;strokeColor=#6c8ebf;" vertex="1" parent="1">
          <mxGeometry x="364" y="280" width="100" height="60" as="geometry" />
        </mxCell>
        <mxCell id="8-e8AVgfwQzteIb5YWxK-12" value="" style="edgeStyle=orthogonalEdgeStyle;rounded=0;orthogonalLoop=1;jettySize=auto;html=1;" edge="1" parent="1" source="8-e8AVgfwQzteIb5YWxK-6" target="8-e8AVgfwQzteIb5YWxK-7">
          <mxGeometry relative="1" as="geometry" />
        </mxCell>
        <mxCell id="8-e8AVgfwQzteIb5YWxK-6" value="&lt;div&gt;WS-AREA = (WS-BASE * WS-ALTURA) / 2&lt;/div&gt;" style="rounded=1;whiteSpace=wrap;html=1;absoluteArcSize=1;arcSize=14;strokeWidth=2;fillColor=#f5f5f5;fontColor=#333333;strokeColor=#666666;" vertex="1" parent="1">
          <mxGeometry x="293.5" y="380" width="241" height="60" as="geometry" />
        </mxCell>
        <mxCell id="8-e8AVgfwQzteIb5YWxK-13" value="" style="edgeStyle=orthogonalEdgeStyle;rounded=0;orthogonalLoop=1;jettySize=auto;html=1;" edge="1" parent="1" source="8-e8AVgfwQzteIb5YWxK-7" target="8-e8AVgfwQzteIb5YWxK-2">
          <mxGeometry relative="1" as="geometry" />
        </mxCell>
        <mxCell id="8-e8AVgfwQzteIb5YWxK-7" value="WS-AREA" style="strokeWidth=2;html=1;shape=mxgraph.flowchart.display;whiteSpace=wrap;fillColor=#e1d5e7;strokeColor=#9673a6;" vertex="1" parent="1">
          <mxGeometry x="364" y="470" width="100" height="60" as="geometry" />
        </mxCell>
      </root>
    </mxGraphModel>
  </diagram>
</mxfile>
